<svg width="261" height="55" viewBox="0 0 261 55" fill="none" xmlns="http://www.w3.org/2000/svg">
<path d="M12.8096 39.3027C11.1689 32.5352 9.72201 26.8727 8.46875 22.3154C7.21549 17.7354 6.21289 14.887 5.46094 13.7705L2.04297 13.5312C1.38216 11.7995 0.915039 9.66895 0.641602 7.13965C1.02897 5.88639 1.75814 4.80404 2.8291 3.89258C3.90007 2.95833 5.15332 2.25195 6.58887 1.77344C8.02441 1.29492 9.47135 1.05566 10.9297 1.05566C14.2565 1.05566 16.7402 2.58236 18.3809 5.63574C19.1328 7.02572 19.7708 8.70052 20.2949 10.6602C20.819 12.597 21.3089 14.8984 21.7646 17.5645C22.5166 22.0534 23.0407 26.0866 23.3369 29.6641C23.6331 33.2188 23.8724 37.0013 24.0547 41.0117L24.1914 44.0879H24.7041C25.2738 42.8346 25.9004 40.1344 26.584 35.9873C27.2676 31.8402 27.86 27.4538 28.3613 22.8281C28.8626 18.1797 29.1361 14.7275 29.1816 12.4717L24.875 11.8223C24.556 10.6146 24.3509 9.53223 24.2598 8.5752C24.1686 7.61816 24.123 6.45605 24.123 5.08887C24.6016 4.49642 25.3991 3.88118 26.5156 3.24316C27.6322 2.60514 28.931 2.06966 30.4121 1.63672C31.8932 1.20378 33.363 0.987305 34.8213 0.987305C36.7809 0.987305 38.5469 1.31771 40.1191 1.97852C41.7142 2.61654 42.9788 3.57357 43.9131 4.84961C44.8701 6.12565 45.36 7.68652 45.3828 9.53223V14.7959C46.4082 18.7835 47.2969 23.4661 48.0488 28.8438C48.8236 34.1986 49.3932 39.2686 49.7578 44.0537H50.1338C50.6807 42.7777 51.2959 40.0661 51.9795 35.9189C52.6859 31.749 53.3011 27.3626 53.8252 22.7598C54.3493 18.1341 54.6227 14.7048 54.6455 12.4717L50.6123 11.8223C50.2933 10.6146 50.0882 9.53223 49.9971 8.5752C49.9059 7.61816 49.8604 6.45605 49.8604 5.08887C50.3161 4.49642 51.1136 3.88118 52.2529 3.24316C53.3923 2.60514 54.7025 2.06966 56.1836 1.63672C57.6875 1.20378 59.1686 0.987305 60.627 0.987305C63.612 0.987305 65.8451 1.76204 67.3262 3.31152C68.8073 4.861 69.5479 7.2194 69.5479 10.3867C69.5479 13.3945 69.0465 17.2682 68.0439 22.0078C67.0413 26.7474 65.7881 31.2021 64.2842 35.3721C62.9854 39.0179 61.7093 42.1738 60.4561 44.8398C59.2028 47.4831 57.6533 50.0807 55.8076 52.6328C55.0557 53.4076 54.0645 53.943 52.834 54.2393C51.6263 54.5355 50.373 54.6836 49.0742 54.6836C44.5853 54.6836 41.2699 53.8177 39.1279 52.0859L40.0508 45.0791L37.8291 33.5605C37.305 30.5299 36.9632 28.1146 36.8037 26.3145L36.3594 26.2803L36.2568 30.6211C35.5049 35.0872 34.582 39.2344 33.4883 43.0625C32.4173 46.8678 31.1868 50.0579 29.7969 52.6328C29.1361 53.3848 28.2246 53.9089 27.0625 54.2051C25.9004 54.5241 24.7155 54.6836 23.5078 54.6836C18.8366 54.6836 15.5439 53.8291 13.6299 52.1201L14.3818 45.6943L12.8096 39.3027ZM72.3506 43.0283C73.7406 43.484 75.0052 43.8486 76.1445 44.1221C78.3548 35.2354 80.8727 24.7422 83.6982 12.6426L75.4609 11.7539C74.9368 10.3184 74.6748 8.68913 74.6748 6.86621C74.6748 5.47624 74.8343 4.12044 75.1533 2.79883C78.4574 2.16081 82.2627 1.70508 86.5693 1.43164C90.8988 1.13542 94.613 0.987305 97.7119 0.987305C99.945 0.987305 101.62 0.998698 102.736 1.02148L104.89 2.25195C108.718 12.7565 112.603 26.9639 116.545 44.874C116.59 45.0563 116.67 45.4209 116.784 45.9678C116.921 46.5146 117.023 47.0387 117.092 47.54C117.16 48.0186 117.194 48.4743 117.194 48.9072C117.194 50.8213 116.511 52.3708 115.144 53.5557C113.229 54.3076 110.917 54.6836 108.205 54.6836C106.929 54.6836 105.642 54.5469 104.343 54.2734C103.044 54 102.167 53.5785 101.711 53.0088L102.121 44.1904L101.267 39.6104C99.7855 39.7015 98.0423 39.7471 96.0371 39.7471C93.8952 39.7471 91.89 39.6787 90.0215 39.542L89.6113 41.3877C88.7227 45.3525 87.9935 48.1667 87.4238 49.8301C86.877 51.4935 86.0566 52.724 84.9629 53.5215C83.8919 54.319 82.2855 54.7178 80.1436 54.7178C78.7536 54.7178 77.3522 54.5355 75.9395 54.1709C74.5267 53.8291 73.2507 53.362 72.1113 52.7695C70.972 52.1771 70.1175 51.5391 69.5479 50.8555C69.5479 49.2148 69.7985 47.654 70.2998 46.1729C70.8011 44.6917 71.4847 43.6436 72.3506 43.0283ZM96.3105 12.9502H94.7383L92.2773 29.8008H99.9336L96.3105 12.9502ZM123.757 28.707C123.757 21.8027 123.859 16.5049 124.064 12.8135H124.03L118.801 12.0957C118.505 11.2526 118.277 10.3298 118.117 9.32715C117.958 8.30176 117.878 7.31055 117.878 6.35352C117.878 5.62435 117.935 4.82682 118.049 3.96094C120.829 3.02669 124.463 2.30892 128.952 1.80762C133.441 1.28353 137.725 1.02148 141.804 1.02148C145.29 1.02148 148.286 1.29492 150.793 1.8418C153.299 2.36589 155.396 3.57357 157.082 5.46484C158.791 7.33333 159.646 10.1247 159.646 13.8389C159.646 15.2972 159.247 16.9492 158.449 18.7949C157.652 20.6178 156.604 22.3382 155.305 23.9561C154.029 25.5511 152.696 26.7816 151.306 27.6475C153.037 27.9437 154.644 28.5475 156.125 29.459C157.629 30.3477 158.848 31.5667 159.782 33.1162C160.716 34.6429 161.184 36.4544 161.184 38.5508C161.184 41.3535 160.648 43.7689 159.577 45.7969C158.506 47.8249 156.979 49.4997 154.997 50.8213C151.123 53.3962 145.655 54.6836 138.591 54.6836C135.811 54.6836 133.339 54.6266 131.174 54.5127C129.032 54.4215 127.049 54.2393 125.227 53.9658C124.247 48.6794 123.757 40.2598 123.757 28.707ZM143.205 26.5537C143.798 24.8903 144.299 22.7826 144.709 20.2305C145.142 17.6556 145.404 15.5592 145.495 13.9414C145.381 13.7363 144.8 13.5654 143.752 13.4287C142.704 13.2692 141.348 13.1895 139.685 13.1895C139.16 13.1895 138.283 13.2236 137.053 13.292C136.87 18.4189 136.597 23.0218 136.232 27.1006L139.685 26.8271L143.205 26.5537ZM141.496 45.7285C143.41 45.7285 144.777 45.6488 145.598 45.4893C146.167 45.1475 146.669 44.5322 147.102 43.6436C147.557 42.7549 147.899 41.7865 148.127 40.7383C148.355 39.6673 148.469 38.7103 148.469 37.8672C148.059 36.6823 146.019 36.0898 142.351 36.0898C140.801 36.0898 139.024 36.1924 137.019 36.3975C136.472 36.4658 136.062 36.5 135.788 36.5L135.686 41.4902C135.663 41.9915 135.64 42.5726 135.617 43.2334C135.594 43.8942 135.583 44.6348 135.583 45.4551C137.087 45.6374 138.728 45.7285 140.505 45.7285H141.496ZM165.183 43.0283C166.573 43.484 167.837 43.8486 168.977 44.1221C171.187 35.2354 173.705 24.7422 176.53 12.6426L168.293 11.7539C167.769 10.3184 167.507 8.68913 167.507 6.86621C167.507 5.47624 167.666 4.12044 167.985 2.79883C171.289 2.16081 175.095 1.70508 179.401 1.43164C183.731 1.13542 187.445 0.987305 190.544 0.987305C192.777 0.987305 194.452 0.998698 195.568 1.02148L197.722 2.25195C201.55 12.7565 205.435 26.9639 209.377 44.874C209.423 45.0563 209.502 45.4209 209.616 45.9678C209.753 46.5146 209.855 47.0387 209.924 47.54C209.992 48.0186 210.026 48.4743 210.026 48.9072C210.026 50.8213 209.343 52.3708 207.976 53.5557C206.062 54.3076 203.749 54.6836 201.037 54.6836C199.761 54.6836 198.474 54.5469 197.175 54.2734C195.876 54 194.999 53.5785 194.543 53.0088L194.953 44.1904L194.099 39.6104C192.618 39.7015 190.874 39.7471 188.869 39.7471C186.727 39.7471 184.722 39.6787 182.854 39.542L182.443 41.3877C181.555 45.3525 180.826 48.1667 180.256 49.8301C179.709 51.4935 178.889 52.724 177.795 53.5215C176.724 54.319 175.118 54.7178 172.976 54.7178C171.586 54.7178 170.184 54.5355 168.771 54.1709C167.359 53.8291 166.083 53.362 164.943 52.7695C163.804 52.1771 162.95 51.5391 162.38 50.8555C162.38 49.2148 162.631 47.654 163.132 46.1729C163.633 44.6917 164.317 43.6436 165.183 43.0283ZM189.143 12.9502H187.57L185.109 29.8008H192.766L189.143 12.9502ZM216.828 26.8613C216.828 21.5977 216.919 16.9264 217.102 12.8477L212.487 12.1299C212.191 11.2868 211.963 10.3525 211.804 9.32715C211.644 8.30176 211.564 7.31055 211.564 6.35352C211.564 5.62435 211.621 4.82682 211.735 3.96094C214.72 2.91276 218.662 2.16081 223.562 1.70508C228.461 1.24935 233.246 1.02148 237.917 1.02148C241.403 1.02148 244.4 1.29492 246.906 1.8418C249.413 2.38867 251.509 3.63053 253.195 5.56738C254.904 7.48145 255.759 10.3525 255.759 14.1807C255.759 15.7529 255.508 17.4961 255.007 19.4102C254.506 21.3014 253.811 23.1927 252.922 25.084C252.102 26.8158 251.167 28.4678 250.119 30.04C249.094 31.5895 248.023 32.9225 246.906 34.0391C247.567 35.7708 248.251 37.3545 248.957 38.79C249.663 40.2028 250.746 41.9232 252.204 43.9512L256.989 41.9346C258.767 43.4613 259.803 45.4893 260.1 48.0186C260.1 48.1553 259.553 48.8047 258.459 49.9668C257.388 51.1289 255.987 52.2113 254.255 53.2139C252.523 54.1937 250.575 54.6836 248.41 54.6836C246.724 54.6836 245.209 54.3874 243.864 53.7949C242.543 53.2025 241.449 52.1657 240.583 50.6846C239.74 49.2262 239.068 47.4945 238.566 45.4893C238.065 43.484 237.712 41.5016 237.507 39.542L229.714 39.2002C229.919 40.9775 230.181 42.8118 230.5 44.7031C230.819 46.5716 231.013 47.6995 231.081 48.0869C231.468 50.3428 231.719 51.8809 231.833 52.7012C230.785 53.3392 229.509 53.8291 228.005 54.1709C226.524 54.5127 225.008 54.6836 223.459 54.6836C221.682 54.6836 219.961 54.4443 218.298 53.9658C217.797 51.9606 217.421 48.4515 217.17 43.4385C216.942 38.4027 216.828 32.877 216.828 26.8613ZM238.088 30.9629C238.885 28.6842 239.512 26.2119 239.968 23.5459C240.446 20.8571 240.879 17.6556 241.267 13.9414C240.606 13.6908 239.74 13.4971 238.669 13.3604C237.598 13.2236 236.561 13.1553 235.559 13.1553C233.28 13.1553 231.571 13.2122 230.432 13.3262C230.181 21.8939 229.908 27.9665 229.611 31.5439L238.088 30.9629Z" fill="white"/>
</svg>
